<svg xmlns="http://www.w3.org/2000/svg" id="svg5" width="48" height="48" version="1.1" viewBox="0 0 12.7 12.7"><g id="layer1"><ellipse style="fill:#262626;fill-opacity:1;stroke:none;stroke-width:1.472;stroke-linecap:butt;stroke-linejoin:round;stroke-miterlimit:4;stroke-dasharray:none;stroke-opacity:1" id="path50154" cx="6.336" cy="9.284" rx="6.14" ry="3.309"/><path style="fill:#262626;fill-opacity:1;stroke:none;stroke-width:5.46142;stroke-linecap:butt;stroke-linejoin:round;stroke-miterlimit:4;stroke-dasharray:none;stroke-opacity:1" id="path23231" d="m 19.843673,5.7661959 a 0.00584652,0.02338608 0 0 1 0.0072,-0.011875 0.00584652,0.02338608 0 0 1 0.0037,0.027409 0.00584652,0.02338608 0 0 1 -0.0064,0.017844"/><g id="g50130" transform="matrix(1.3865045,0,0,1.3865045,-2.3980615,-2.0589134)" style="stroke-width:.721238"><path id="rect38383" d="M 5.3253065,-2.0433628 8.7280885,-3.3352817 8.3870838,1.0228232 4.0300531,1.3588253 Z" transform="matrix(0.8503784,0.52617162,-0.8503784,0.52617162,0,0)" style="fill:#ff8c22;fill-opacity:1;stroke-width:1.12228;stroke-linejoin:round"/><path id="rect38585" d="M 2.2715544,2.8354749 6.2624081,4.951226 6.2644753,9.8579247 3.1720204,7.0292619 Z" style="fill:#e91e63;stroke-width:1.06166;stroke-linejoin:round"/><path id="rect38585-4" d="M 10.258429,2.8375419 6.2624081,4.951226 6.2644753,9.8579247 9.3547174,7.0307235 Z" style="fill:#9c27b0;fill-opacity:1;stroke-width:1.06166;stroke-linejoin:round"/></g></g></svg>